<?xml version="1.0" encoding="UTF-8"?>
<svg id="Layer_1" data-name="Layer 1" xmlns="http://www.w3.org/2000/svg" viewBox="0 0 2052.06 849.29">
  <path d="M426.82,289.51c-3.82,22.34-1.38,12.93-3.11,33.53l-1.01,12.13c-.45,5.42-1.73,10.66-3.05,15.84l-3.65,14.31c-3.61,14.15-.77,18.83-5.27,29.91-2.92,7.19-3.12,15.49-6.51,22.73-1.24,2.66-5.3,5.96-6.12,8.46-2.58,7.84-8.44,9.74-14.73,12.45-5.16,2.22-8.9,3.31-14.93,3.03l-13.92-.64c-3.47.46-9.32,3.03-12.51,4.93-7.37,4.37-14.06,8.13-21.59,11.76-9.15,4.42-17.15,5.48-25.65,9.18-11.88,5.16-23.5,8.05-36.01,11.34-4.74,1.24-8.79,3.5-14.24,3.78-5.33.27-10.91,2.57-16.2,3.33l-13.03,1.89-13.62.69c-7.12.36-13.9,2.65-21.12,2.53-13.45-.23-14.78,5.93-25.08,4.74-7.56-.87-14.46.35-22.07.92l-16.85,1.26c-3.63.27-7.38,2.26-10.79,2.28l-19.12.09c-4.82.02-9.3.92-14.14.3l-13.3-1.71c-21.14-2.72-31.11-7.67-50.2-7.19l-7.05-4.94c-1.42-.99-1.71-5.07-1.95-7.27,2.99-2.49,7.4-4.74,11.38-4.88,5.55-.19,10.89-.99,16.14-.74,10.39.49,19.77.42,30.15-1.01,2.25-.31,6.93-1.13,9.33-.82l34.55,4.38c6.39.81,12.93,1.5,18.84,3.13,5.34,1.48,10.42.74,16.2.4l18.91-1.12,13.1-.88c6.48-.43,12.57-1.06,19-2.08l9-1.43c2.91-.46,7.09.88,10.17-.6,2.43-1.17,6.32-3.11,8.62-2.89,8.2.78,14.27-2.35,21.75-3.53l21.71-3.43c3.18-.5,6.22-1.5,9.19-2.54l12.67-4.43c7.45-2.6,14.68-4.94,22.16-7.01,3.16-.87,6.28-1.43,8.95-3.06l13.06-7.98c1.63-1,4.51-1.87,5.95-3.24-10.48-7-13.35-2.74-25.33-12.44-3.56-2.89-8.09-3.91-12.05-6.04-3.67-1.97-30.67-39.57-32.79-52.31l-2.91-17.49c-1.11-6.68-1.55-12.68-.35-19.24.33-1.81.45-4.9.93-6.33,1.69-5.06,2.7-9.2,3.44-14.59,1.54-2.18,4.56-6.13,6.25-8.01l11.19-5.24c7.34-3.44,21.18,0,25.65,2.96l15.16,10.06c5.03,3.34,8.15,9.31,12.38,13.41l13.23,12.86c4.68,4.55,16.55,12.48,17.13,13.67l9.86,20.43c2.23,4.61,7.53,8.68,8.39,13.97l3.11,19.13c1.03,6.35-.74,13.32-.93,20.4,7.72-.83,10.17-17.44,11.63-23.81l3.97-17.28,4.52-27.7c1.63-9.98,4.28-19.73,5.01-29.76l1.1-15.03c.45-6.12-.27-12.65.62-18.48l4.64-30.35.79-9.2c.34-3.91.87-7.56,1.64-11.33l5.93-28.98c1.29-6.31,3.1-11.33,6.37-17.01,1.18-2.04,1.88-5.48,3.15-8.03,1.11-2.22,5.77-3.84,8.2-3.37,3,.58,5.54,3.03,7.55,5.89s1.11,5.24,1.09,8.47l-.07,13.4c-.07,14.7,1.17,28.53,2.47,43.06,1.2,13.42-.26,26.53,2.46,39.86,1.3,6.34,1.96,44.96,4.81,59.1l4.21,20.95c1.3,6.46.44,12.53.28,19.1-.15,6.25,1.9,12.66,2.16,18.99s-.43,16.41,3.27,19.08c5.07,3.66,2.35-32.99,2.09-35.43-1.41-13.13-3.77-17.21-3.2-27.91.18-3.4-.68-8.43-1.13-11.76,3.31-.73,3.36-6.06,7.11-5.77,3.37.26,4.6,8.54,5.04,12.13l3.31,26.76,2.64,30.21c.52,5.92.05,12.01,2.84,17.62,1.41,2.83,7.19,1.72,9.14-.67,16.54-20.28,9.02-14.49,12.52-21.98,3.62-7.74,7.71-16.3,8.88-25.07l.85-6.36,2.19-15.21c.38-2.62.43-5.79.59-8.7l2.06-.69c.58-.2,1.12-2.59,1.11-3.24l-.08-24.77c-.02-6.15,2.2-11.95,4.34-17.4l8.83-2.67c2.49,3.47,2.49,7.7,1.67,12.22-1.43,7.95-.27,16.4-.73,24.44-.93,16.15,2.91,30.59,11.66,43.73,3.92,5.89,6.93,12.01,15.2,13.59,7.68,1.48,7.2-11.18,10.8-22.37,4.55-14.17,5.97-15.56,9.97-30.2l5.17-18.95,7.55-4.93c6.24,2.55,4.55,7.62,4.18,12.5-1.29,17.1-.44,39.83,7.53,55.2l2.68,5.17,3.62,7.34,7.7,1.02c12.89-3.87,5.36-15.48,5.88-23.84l1.06-17.16c.48-7.75,2.59-15.09,4.11-23.11.58-3.07,4.18-6.53,5.59-9.86,2.24-5.3,3.99-13.17,9.86-15.61l10.69-4.45c3.21-1.34,9.26,2.53,12.95,3.52s6.07,4.33,8.98,6.86,6.59,4.96,8.24,8.34l7.65,15.68,9.54,23.74c2.1-.35,4.22-1.92,5.3-3.65,7.66-12.27,5.5-4.97,10.26-19.8,10.94-8.29,14.2-19.45,27.35-17.64l4.02,4.36c1.08,4.04,2.93,10.98,3.55,15.66l3.18,24.09,6.33-3.05c3.42-5.68,6.74-10.86,9.37-16.68,1.3-2.87,1.57-6.73,3.69-9.33,3.3-4.05,5.47-8.63,8.4-12.75l11.58-16.29c1.96-2.76,5.7-6.3,8.18-8.32,5.04-4.1,10.52,3.72,12.44,5.79.33.36-1.69,1.8-1.78,2.4-.74,4.85-.27,13.12-.16,18.65.07,3.54-.83,7.22-.55,10.66.89,10.74,1.69,21.27,4.75,31.37,2.84,9.36,18.04,6.54,19.15,5.95l9.31-5.01c2.5-1.34,14.38-7.41,16.41-5.67-.52-7.95.29-16.63.95-24.78.78-9.63,3.03-17.37,7.74-25.53,1.11-1.92,2.19-4.6,3.55-6.35l6.25-8.1c6.49-8.41,20.47-13.12,29.33-6.67l9.68,7.05c2.56,1.87,5.14,2.72,7.25,4.78,7.42,7.21,12.22,15.42,14.41,25.52,2.44,11.24,6.77,19.46,6.45,29.22-.54,16.87-6.03,14.32-7.22,22.61-4.95,1.93-10.6,3.23-16.85,4.26-.11-4.24.2-6.67.79-10.6l5.85,1.65.75-6.11c3.63-5.52,3.74-10.8,2.75-17.12-2.55-16.38-8.47-32.03-19.77-44.58-2.23-2.48-6.41-4.89-9.6-6.58-2.76-1.46-8.37.09-10.64,1.91-6.35,5.08-9.91,12.46-12.59,19.9-1.72,4.77-4.75,9.12-4.5,14.62l.93,20.01c.37,8,2.19,15.06,4.55,22.37,2.03,6.28,4.8,10.05,9.19,14.4s7.59,8.01,13.81,9.78c12.08,3.43,17.29.92,29.92-6.54,6.09-3.6,10.23-10.17,15.14-14.78,12.17-11.39,2.65-4.18,12.72-18.51,2.64-3.75,4.83-7.19,6.85-11.25l5.23-10.51,6.77-16.32c8.14-19.62,10.45-15.26,9.13-37.63l-1.54-26.05-.46-8.92c-.6-11.84-1.14-23.29-1.03-35.08l.25-27.86c.07-7.57.89-14.66,1.58-22.1.97-10.6,10.46-31.64,18.5-31,9.51.76,13.75,16.5,13.95,21.8l1.24,33c.36,9.53.1,18.54-.66,27.87-1.45,17.64-3.53,12.74-3.71,28.47-.05,4.03-1.52,7.69-2.34,11.41l-2.72,12.31-2.48,7.96c-2.88,9.25-4.09,19.25-2.2,28.7l2.32,11.6c2.34,11.7,4.75,22.49,10.6,32.88,2.76,4.9,4.35,14.44,10.54,16.16.9.25,2.54-2.59,2.45-3.66-.56-6.27,3.07-13.55,4.65-19.54l6.93-26.34c1.65-6.28,2.9-11.68,11.21-11.77.35-1.8.76-5.52,1.55-6.89l6.48-11.34c1.24-2.03,6.92-2.35,9.1-3.29,5.57-2.42,10.28-2.68,16.21-2.65,3.73.02,5.73,1.06,9.41,4.06,2.9.12,4.64-5.33,6.34-8.24,1.52-2.6,7.84-5.78,10.82-5.09,4.41,1.04,4.13,7.6,3.27,10.79l-2.68,10.01c-7.64,7.32-3.39,17.56-8.51,30.41-4.58,11.5-5.78,22.99-4.28,35.41.7,5.83,2.77,9.94,7.2,13.35,4.7,3.62,8.89,3.64,14.42,3.5,5.01-.12,8.39.09,13.03-2.45,3.43-1.88,8.9-2.71,12.17-4.94,3.9-2.65,1.32-7.44-.06-10.52-9.21-20.52-6.88-14.16-6.13-33.83.66-17.48.79-21.59,11.88-35.7.98-1.25,3.93-3.41,5.27-4.17,8.83-5.03,21.04-.28,25.64,8.63s7.24,19.36,6.27,29.28l-1.83,18.54c-.37,3.76-1.7,8.63-4.62,10.55-6.82,4.47-8.67,12.75-5.83,13.83,7.44,2.81,20.07,5.08,27.49.72,5.29-.29,10.86,1.49,16.91,2.06l7.13-10.75,3.27-8.67,22.66-35.2,4.42-6.74c5.11-7.78,8.36-9.76,17.65-14.09,9.71-4.53,6.37,2.74,16.38,3.17-.43,4.15-.76,9.62,4.25,12.47l9.6-11.61c.57-.69,2.57-1.13,3.25-.57l7.88,6.51-.13,17.71c-.1,13.49-1.17,26.41,1.12,39.89,1.63,9.56,11.1,16.54,20.55,14.61,9.85-5.71,18.41-14.21,24.5-23.68,2.36-3.68,4.25-7.97,6.16-11.75l4.05-8.02c2.16-4.26,3.46-10.26,6-14.05,2.98-4.42,5.66-7.99,7.27-13.07,4.35-13.74,6.49-14.41,10.27-26.67l8.24-26.75c1.79-5.81,2.33-13.36-2.58-17.77-3.25-2.91-4.11-6.25-5.97-10.07-2.8-5.75-5.74-11.13-7.48-17.44-2.76-10.02-3.82-19.78-3.78-30.26.08-21.6,4.41-32.08,16.97-49.18,3.1-4.21,4.49-10.43,8.95-13.67l10.09-7.34c5.7-4.14,12.09-10.56,19.86-9.5,1.22.17,3.13.36,4.61.29l3.51,11.14c2.11,6.71,1.91,14.37.71,21.03l-5.49,30.61-3.06,21.11-2.74,6.99-3.82,17.21-1.47,5.46-2.5,8.69c-3.96,13.78-7.86,16.8,2.78,31.57l10.59,14.71,14.41,17.4c4.34,5.24,9.12,9.58,14.47,13.68l7.99,6.12,9.97,8.86c3.31,2.94,5.98-.11,8.65-1.58l13.94-7.72,11.89-6.2,10.6-5.39,12.9-6.19,23.4-9.98c2.45-1.04,4.73-2.83,7.5-3.04,4.55-.35,8.42-1.61,12.05-4.15s7.69-2.67,11.72-4.46l19.77-8.8,7.38-2.73,12.57-5.41,9.89-4.35c5.07-2.23,10.24-3.67,15.44-5.7l19.31-7.52,18.77-7.36,19.79-8.04,9.22-3.73c3.95-1.6.06.93,4.61-2.25.64-.45-1.39-2.3-2-2.85l-12.02-10.94-12.73-11.25-9.51-8.65-7.43-8.43c-6.06-6.88-13.37-11.24-20.66-16.42-2.12-1.51-5.18-4.64-7.29-6.61l-10.39-9.7-4.61-4.37c-4.13-3.92-8.97-8.25-13.72-11.05-2.83-1.67-4.43-2.08-5.95-5.27-2.53-5.31-7.63-9.07-11.8-13.11l-9.77-9.48c-3.03-2.94-7.7-13.19-15.88-20.81-4.02-3.74-12-13.39-12.8-17.95l-2.59-14.74c4.21-11.31,10.04-13.79,21.4-18.78l3.74-3.71c.96-.95,4.61.06,5.95.58,6.35,2.47,5.85-4.39,9.06-4.83v2.45c0,1,3.03-.67,4.39-.58l18.18,1.27,7.11-5.55c2.14-1.67,7.07-2.49,10.37-1.78,1.61.35,3.71,3.4,5.28,3.47,2.16.1,5.08-1.11,6.79-2.4.2-.09.47-.17.54-.11l.98.99c.66.66,1.35,1.67,2.9,1.54l2.08-.17,7.55-.63c1.83,1.39,2.34,2.5-.09,1.58l-10.55.33c-.23.42-.84,1.78-.41,1.8l3.55.19,27.11.27c12.26.12,23.52.97,36.71-.82l-3.28-1.89c-.82-.72-1.49-1.54-.94-1.82l3.46-1.78c3.56-1.84,2.31,3.17,8.3,1.35l1.44-1.86c1.64-2.13,2.56,2.48,8.95,3.61,3.46.61,8.18.22,11.09,1.06,10.95,3.19,16.98,1.02,32.29,1.82l18.96.99c1.18.06,4.23-2.14,4.82-1.72,2.19,3.03,7.19,3.69,8.81,1.49.35-.48,2.13-.01,2.47.36l1.26,1.41c1.92,2.14,6.96,1.81,9.31.43l-.51-1.87c-.08-.3.86-1.7,1.14-1.56l7.69,3.82c5.09,1.96,11.5.54,16.41,1.88,7.48,2.04,6.26-2.2,7.92-.65l2.41,2.26c2.16,2.02,6.02,2.62,7.58-.05.51-.88,3.13-2.54,3.94-1.92l4.26,3.24,5.85.18,6.45.19-.64,2.75c-.17.73,1.82,1.64,2.61,1.76l2.01.3c3.91.59,7.99,1.59,11.21.5,1.11-.37,2.34-.55,2.84-.22,6.76,4.53,6.26-.5,10.74,3.97l2.54,2.53c7.2-.99,10.75,3.13,13.51,1.99,3.99-1.66,8.49,2.08,9.94,5.9.55,1.45,4.71,2.21,6.19,1.8l1.87-.51c.42-.12,1.85-.24,1.98.18l.72,2.35c.05.16.05,1.39.15,1.7,2.1,6.47,7.99-.73,12.27,3.13,3.46,3.12,6.75,5.09,10.99,7.39l4.98,6.32,5.41-.66,1.07,4.04c2.42-.34,4.13-1,4.83-.49.75.55,5.75,6.83,4.58,4.14l2.6,6.03c4.58,1.83,9.78,4.29,10.11,9.49.71,11.36-.36,22.41-10.43,28.37l-.04,2.21c-.01.72-.9,1.76-1.68,2.2l-1.56.89-13.87,7.88c-.34.2.09,2.53-.3,2.48l-2.55-.33c-1.31-.17-1.86-.1-2.99.7l-1.23.88c-.21.15-1.23.8-1.38.78l-2.29-.31c-.57-.08-.58.8-.41,1.92l.29,1.92c-.76-.26-1.92-.92-2.29-.59l-2.31,2.07c-11.41,10.23-14.17,3.43-15.91,6.52-1.37,2.42-4.52,4.45-7.14,4.09-4.87-.67-8.04,2.87-11.72,3.85-6.24,1.66-11.99,4.29-17.02,8.24-9.71,4.69-18.63,5.76-28.73,9.74l-9.38,3.69c-5.33,2.1-10.29,4.99-16.04,6.09-1.04.2-3.11,1.43-4.13,1.43-2.55,0-8.35-.22-10.73.83l-11.37,5c-1.92.84-2.69,1.17-5.25,1.43l-2.19.22c-1.88.19-.27,1.53-1.69,3.75-3.84,6.03-10.51-1.59-12.77.75l-2.47,2.56c-2.33,2.41-4.25-.84-4.93-.02l-2.37,2.86c-5.5,2.17-11.75,4.7-17.56,6.1-2.14.51-5.39.36-6.44,1.53-4.4,4.92-7.31-2.33-15.01,5.33-.68.35-2.95-.8-3.61-.26l-2.98,2.42c-.15.12-1.37.6-1.56.59l-1.79-.08c-2.18-.09-4.1.94-6.53,2.53l-1.99.38c-.35.07-1.68.45-1.68.8l-.02,1.61,2.12,7.88,2.72,10.13c1.98,7.39,1.83,22.45-3.15,30.5-2.83,4.57-4.45,10.18-9.68,12.12-.69.25-1.47.99-2.37,2.05-3.59,4-1.97-7.99-.77-12.02,3.15-10.59,3.36-22.57-2.33-31.77-4.46-7.2-6.65-14.37-11.1-12.84l-6.19,2.14c-1.57,2.53-4.99,4.42-8.12,3.46s-5.32,2.46-7.2,2.82c-2.99.58-6.32.73-9.45,2.75-2.79,1.81-6.36,3.05-9.42,4.78-2.34,1.32-5.45,3.34-8.27,3.43-11.51.38-25.35,10.14-33.23,11.56-1.01.18-1.11,2.52-1.61,4l-1.07,3.15c-.17.51-12.24-4.57-15.03,1.13-.32.66-.74,3.19-.85,3.82-.13.78-2.73-1.93-3.5-1.74l-9.32,2.31c-1.56,1.72-2.74,3.1-4.35,3.29-5.19.61-9.22,4.24-13.71,5.28-8.25,1.92-19.24,5.06-24.63,12.55-5.57.89-14.37,1.91-19.08,4.71-.54.32-1.07,3.14-1.62,2.99l-3.01-.8c-1.62-.43-4.29,1.19-6.41,2.34-14.08,7.62-26.05,10.39-36.73,20.04-2.54,2.29-7.98,2.46-11.52,5.06-5.55,4.06,9.17,14.06,12.02,16.21l6.53,4.95c3.05,2.31,1.9,3.89,12.87,10.82,9.21,5.81,10.12,9.4,15.67,8.52.4-.06-.02.58-.43,1.27l-1.06,1.76,5.22,3.87c5.51,4.08,10.88,7.57,16.61,11.35l7.2,4.75,10,6.85c4.94,3.38,9.66,6.08,14.36,9.76,9.13,7.15,14.71,8.57,21.92,15.94l7.46,7.63c1.76,1.8,3.75,4.32,5.54,6.46,5.4,6.49,6.95,16.33,4.47,23.85-2.81,8.51-9.06,12.89-16.95,15.32-.62,5.23-11.91,9.77-15.94,10.89l-21.19,5.9-11.61.69c-4.46.27-7.46,1.57-12.39,1.75-3.67.14-8.22,3.07-11.88,4.64l-5.64,1.07c-2.84,1.99-5.23,3.13-8.37,4.34-3.61,1.38-7.76,4.36-11.62,4.52-5.13.22-8.4,1.45-12.89,4.01l-11.77.84c-6.29.45-17.75,1.75-23.51,2.61-3.29.49-5.92.69-9.53.45-11.98-.77-17.28,5.88-27.01,4.79-5.69-.63-11.01,1.18-16.54,2.28l-24.21,4.85c-4.48.9-9.26,1.43-13.82,1.96-15.87,1.84-15.51,2.87-33.02,4.3-1.77.15-5.9-1.24-7.7-.64-4.15,1.37-8.53,1.8-13.25,2.05-7.67.4-15.36,1.43-22.81,2.85l-17.44,3.32c-20.71,3.94-32.08,1.42-48.33,5.3-1.27.3-3.93,1.45-5.15,1.44l-14.7-.13c-3.56-.03-7.66-1.41-11.54-1.14s-6.95-1.04-9.36-3.87c-1.97-2.3-3.43-7.04-.48-9.97,11.17-11.14,10.23-5.46,21.41-16.4,8.2-8.03,9.05-7.49,15.27-16,5.14-3.81,20.28-17.02,24.27-21.47,2.4-2.68,4.37-4.61,6.99-6.97l11.61-10.43c5.22-4.69,10.02-8.53,16.62-11.53l7.8-7.11c6.36-5.8,13.29-9.58,20.14-14.78l16.48-12.5c4.56-3.46,10-6.1,13.85-10.19,2.43-2.58,4.45-4.7,7.26-6.68l29.81-21.05c3.9-2.76,7.25-5.19,11.07-8.17l7.87-6.12,8.09-5.81,17.37-11.89,14.16-9.74c3.64-2.5,7.98-5.46,11.78-6.88,1.11-.42,2.64-2.82,2.35-3.79s-1.44-2.49-2.36-3.31l-9.64-8.51c-3.11-2.75-6.3-5.89-9.6-8.35-9.26-6.91-13.67-13.42-20.68-22.47-2.14-2.75-5.29-5.5-7.01-8.61-2.02-3.66-3.93-6.62-6.53-9.8-.86-.74-1.95-1.66-2.5-1.24s-2.48,2.21-2.55,2.9l-.9,8.74c-3.44,3.84-5.68,8.82-6.49,14.35-.99,6.75-4.47,7.65-8.02,25.96-.28,1.42-1.96,3.39-2.45,4.62l-6.44,16.14c-1.19,2.98-3.01,5.58-5.01,8.47s-1.91,10.52-5.79,12.46c-.82,2.51-5.86,10.05-7.23,10.89-10.52,6.48,1.71,6.68-6.91,6.85-1.06.02-3.36,2.2-3.53,3.23l-.54,3.34c-.14.86-1.71,1.14-3.87,1.05l-2.75,4.43c-3.42,1.55-7.17,3.34-10.82,4.61-11.83,4.12-6.46,4.31-19.07.79-2.14-.6-6.37-2.49-7.9-3.83-1.77-2.17-5.69-5.94-6.92-8.17-8.57-15.49-2.11-39.71-7.24-49.88l-.88,3.9c-.16.69-1.47.41-2.88.39-2.66,3.33-4.85,8.2-7.88,11.54-8.12,8.98-15.72,17.58-22.29,27.71-.94,1.44-6.36,10.29-5.68,10.06-2.47.82-8.98,3.94-7.67,6.87l.9,2.02-1.65.2-1.92-.53-12.41,8.76c-5.79,4.09-16.82,1.4-19.1-3.09-2.65-5.23-2.81-12.05-2.57-18.09l-1.95-2.62c-3.3.93-6.18,1.84-8.56,2.12l-26.02,2.99c-3.98.46-8.21-.54-12.07-.9-2.13-.19-5.19.3-7.46-.15-4.75-.94-7.53,3.14-14.1,6.91-5.51,3.16-13.63,5.83-19.93,5.77-2.74-.03-5.54-1.19-8.56-.76-4.55.65-10.98,1.37-15.17-.5-4.51-2.01-10.74-5.65-13.61-9.49-2.27-3.04-4.38-7.64-5.91-10.85-3.44-7.18-1.46-15.6-1.46-23.05,0-1.92-.77-5.44-.46-7,1.14-5.64,2.1-10.63,3.73-15.67,7.79-24.12,1.58-19.69-1.34-22.89-3.32-3.63-5.59-4.81-10.46-3.82-8.26,1.68-14.01,7.12-16,15.59l-1.54,6.57-5.82,9.48c-1.98,3.22-4.39,29.49-7.41,37.83-6.86,18.92-.5,26.09-14.32,28.73-7.78,1.49-14.79-4.23-18.16-11l-13.37-26.82c-7.79-15.63-4.32-24.49-9.54-29.26-.69-.63-2.92.67-3.28,1.54l-5.03,12.06-4,9.1c-1.52,3.47-2.72,8.34-4.56,10.91-2.96,4.14-5.5,7.54-7.97,11.56-1.94,3.16-3.49,7.19-6.11,9.59-3.23,2.95-4.54,5.67-5.59,10.25-2.06,2.38-5.95,6.17-8.86,8.28l-13.41,9.73c-3.51,2.55-10.41,2.42-14.61,4.18-5.19,2.17-10.28,2.92-15.22,1.37l-15.59-4.88c-1.94-.61-5.38-3.12-7.01-4.45l-6.27-5.08c-8.4-6.82-14.52-32.26-17.1-36.27-.45-.71-3,.17-3.66.98-7.52,9.23-26.99,19.34-38.41,18.34-4.28-.37-12.36-3.58-14.41-8.99l-4.66-12.29c-3.12-8.24-3.4-17.11-4.29-25.91l-5.06-3.28c-3.06,1.61-5.2,4.47-4.67,8.02l-4.14,3.41c-6.92,20.75-9.85,10.04-14.05,30.3l-2.85,13.77c-.82,3.94-1.94,6.71-4.98,8.3-2.7,1.42-6.82,3.29-9.73.6-2.04-1.88-3.23-6.59-3.94-9.57l-3.92-16.27c-2.39-9.91-4.02-19.11-5.42-29.5-.18-1.34-1.55-3.14-3.36-4.72l-4.81,8.79c-2.95,3.48-5.06,6.96-7.59,10.65-3.34,4.87-15.79,22.34-15.81,27.25-.01,3.89.33,9.21-1.67,11.44-11.83,13.22-13.53.83-29.06,10.3-10.56,6.44-13.13-3.4-18.23,4.57-3.97-1.57-9.12-3.7-12.75-6.05l-7.04-4.57-16.13,8.22-8.56-.75c-4-.35-9.75-2.64-13.14-5.1-5.25-3.82-12.32-17.99-12.15-25.13.19-1.19-4.9-1.29-5.25.11l-2.37,9.61-1.77,7.29c-7.46,5.41-9.61,13.46-22.36,10.97-2.41-2.97-4.5-4.54-9.19-4.27-2.83-2.04-7.39-5.49-10.33-8.13-4.85-4.35-5.33-14.11-10.21-17.56-.93-.66-3.01,2.3-3.2,3.46l-1.58,9.62c-1.29,7.86-5.84,20.1-9.9,26.69-3.83,6.21-6.97,11.13-13.37,14.88-10.47,6.14-8.53,10.77-27.29,8.22-2.09-4.18-3.5-8.3-8.31-10.63l4.51,36.99,4.11,29.15c.45,3.17.93,6.21,2.01,9.26,1.31,3.68.52,8.09,1.1,11.63.97,5.94,1.89,10.63.55,17.01-1.21,5.77,2.29,12.13,2.24,17.97-.02,2.58.6,5,.88,7.36l2.36,19.67,1.83,9.62,1.19,15.28.87,11.02.64,11.74c.17,3.07.14,6.18.44,9.3l.94,9.92,1.07,12.08c.63,7.15,5.21,24.16,4.84,27.95-.8,8.28-.45,15.72.15,23.96l1.03,14.13c1.2,16.47-.35,13.59.78,28.13l1.33,16.97-.29,11.69c-.17,6.65.08,12.56-.16,19.19l-.64,17.94c-.14,4.01-1.04,7.88-1.56,12.14-.72,5.85-14.29,13.59-19.28,8.31-5.95-6.29-10.59-17.66-6.43-25.2,1.96-2.93,6.33-3.91,6-9.43-.36-6.14.2-12.67.16-18.94-.06-8.88-1.6-17.22-1.84-26.02l-.93-34.37-.86-17.52-2.12-22.71-1.71-19.33-1.16-11.89-2.24-13.6-.86-29.04-2.15-24.81-3.9-31.92-1.8-33.74-2.12-18.29-3.69-33-5.92-40.16c-2.86-19.38-4.17-38.14-7.6-57.56.46,2.59-2.05-28.8-2.03-27.86-.15-7.67-.43-14.07-1.65-21.4-.99-5.95-.23-29.4-.88-40.35l-1.12-18.87-4.62-6.49-3.34-.27c-1.62-.13-.6,18.76-1.63,24.73h-.07,0ZM1944.16,152.24c3.66-2.35,6.67-2.08,10.5-2.85,5.67-1.14,11.41-6.07,17.05-7.59,10.82-2.91,16.62-7.42,26.82-11.15,6.24-2.28,9.6-5.41,15.02-8.98l11.18-7.36,8.89-5.49c3.92-2.24-9.67-13.8-9.09-13.4-6.98-4.79-13.01-9.63-19.46-15.03-3.82-3.19-9.79-5.86-14.48-7.27-2.36-.71-5.93-.15-7.44-1.61-3.73-3.61-7.49-5.5-11.57-7.95-8.26-4.96-11.21-4.91-21.1-5.57-2.43-.16-19.55-4.34-18.73-4.27-7-.59-13.48-.87-20.2-2.82-3.01-.87-6.6-1.33-9.6-1.36l-8.89-.1c-2.08-.02-4.15-.13-6.54-.81l-1.54,1.06c-.35.24-1.42-1.68-1.82-1.79l-10.15-1.65c-2.96-.48-7.33-2.97-10.03-2.22-8.18,2.29-14.78,1.75-22.63-1.43l-9.9-.48c-4.25-.21-7.92-1.05-12.18-1.7-3.09-.47-8.13,1.23-11.4,1.22l-6.79-.02c-2.64,0-7.34-1.94-10.26-1.64l-9.04.94c-5.18.54-10.1.92-15.5,1.13l-7.71.3c-3.16.73-7.82,5.79-11.62,2.98-2.22-1.64-4.09-2.73-7.48-2.7-3.96.03-9.42-1.15-12.8.17-3.55,1.38-7.17,4.05-10.55,1.64,4.92-4.58-8.78-1.77-10.37-1.47-.97.19-1.65,2.92-2.28,4.36-3.27-1.17-9.18-9.93-11.3-7.92l-3.72,3.52c-6.28-2.07-13.85.7-19.61,1.25-10.33,1-10.71,1.51-21.48,2.62l-6.72-1.04c-7.25,4.66-17.65,3.42-16.08,9.17.27.98,2.44,1.48,3.26,2.12l10.9,11.06c.12,1.82.34,4.84.85,6.24s4.06,2.38,5.06,3.55l8.63,10.1c1.8,2.11,3.84,4.22,6.56,5.66-.18,4.14,1.52,8.22,5.82,9.57l6.06,6.54c3.9-2.68,6.1.41,8.63,2.39,1.09.85,4.37,1.83,4.55,3.07s-.57,3.59-1.03,4.99c-.35,1.08,1.37,3.58,2.46,3.57l3.93-.06c2.52,2.21,6.3,3.82,9.77,3.64.01.74-.45,2.68.23,2.8l3.47.63c1.41.26,3.42.48,4.23,1.01s1.23,2.91,1.88,3.69c.61.73,4.23,1.04,3.85,1.92-1.81,4.18-4.3,7.28-2.52,8.8,1.29,1.11,3.67,3.55,4.84.77l7.06.24,5.2,8.87,9.22,5.28-4.3,5.21c4.6.91,7.34,1.83,10.4,4.74l-3.19,1.27,16.77,15.93c.62.59,2.13,1.91,2.73,2.37s2.35-1.2,2.8-1.17c2.03,1.88,4.12,3.57,6.68,5.02l5.69,13.33,21.55-3.69c21.19-3.63,12.51-6.21,24.95-9.1l16.58-3.85,11.64-5.74,24.5-7.45,12.82-3.94,11.07-3.99c7.02-2.53,18.03-3.63,20.84-8.56,7.15.06,19.63-5.33,26.13-9.51h.03,0ZM1425.13,208.19l1.54,14.69c8.6,3.16,12.6-22.37,13.77-28.4,2.36-12.17,3-8.64,4.77-21.12l2.04-14.42,2.05-16.18c.57-4.5.54-9.1.61-13.71l-5.8.12c-12.58,7.83-7.73,16.92-12.39,20.85-10.29,8.67-3.92,16.23-7.06,16.3l-3.35.07c-1.81,1.91-1.92,5.55-.95,8.75l-3.58,2.95,1.58,12.72c.2,1.62,2.6,25.28,6.76,17.37h0ZM1011.73,255.27c1-3.62,1.05-4.58,1.48-4.61l2.43-.22c3.31-11.83,6.6-73.38,3.23-79.87-.46-.88-2.35-1.13-4.28-1.42l-1.12,15.9c-.24,3.39-.7,6-1.65,9.24-1.3,4.44.44,9.94.27,14.62-.66,18.03-3.4,30.62-1.85,46.1,2.19.36,2.86.47,1.48.26h.01ZM360.9,416.5c2.34-2,5.79-6.13,7-8.55,6.03-12.16-7.34-29.54-10.12-35.1l-9.39-18.81c-2.03-4.06-6.83-7.39-10.1-10.7l-6.99-7.05-9.49-9.58c-2.41-2.43-6.39-4.77-9.18-6.8-8.17-9.01-19.72-14.46-31.67-9.52l-4.65,9.25c-8.26,16.43-2.31,26.29.42,40.56,1.25,6.52,3.03,11.21,7.8,16.02l5.16,11.44c7.31,16.2,29.53,25.88,45.03,31.2,4.49,1.54,8.66,2.13,13.09,4.27,1.92.93,4.98.28,6.55-1.06l6.54-5.58h0ZM1185.43,343.64c.79-2.47,1.61-4.84,1.75-7.29l.71-12.33c.36-6.19-2.48-11.72-9.25-12.07l-3.53,5.78c-4.19,6.85-5.93,14.32-5.15,22.4.46,4.75.62,20.75,7.05,19.04,5.22-1.39,7.11-11.42,8.42-15.51v-.02ZM1251.11,393.34c1.47,1.54,5.11-.23,6.72-1.97,2.92-3.15,6.33-4.95,9.66-7.46,5.29-4,8.18-11.48,11.91-17.02l10.16-15.12,10.25-14.62,8.23-11.78c-7.82-3.11-7.01-13.16-8.78-12.33l-2.77,1.3c-.54.03-2.12-2-2.36-1.35-2.39,6.49-2.44,1.53-11.16,12.3s-.53,9.38-8.99,15.15c-2.8,1.91-4.09,5.69-5.59,8.74l-3.66,7.47c-5.38,10.97-7.98,6.67-7.74,15.29.11,4.02-4.69,8.3-4.79,12.02-.08,3.31-.37,5.66-1.09,9.39h0ZM697.7,383.09l-4.36-20.79c-1.93-1.49-4.11-3.84-5.17-6.1l-9.64-20.35c-1.41-2.97-5.39-6.2-8.26-8.86-3.62-3.35-14.51-.88-13.27,2.55l1.72,4.76,7.94,22.57c3.39,9.63,7.93,18.49,12.1,27.93l11.02,9.19c2.03.43,5.49-1.45,6.75-2.91,1.6-1.85,1.74-5.37,1.18-8h0ZM1393.48,519.8c3.56-.17,6.97-.21,10.54-.81l18.82-3.16,15.77-2.34,41.87-6.11,13.33-1.53c6.53-.75,13.27-1.44,19.69-1.79,4.73-.26,8.12-.8,12.69-1.85l15.67-3.61c7.62-1.76,15.25-3.59,22.95-4.8,7.14-1.12,13.14-2.63,19.85-5.33,5.1-2.05,11.41-2.37,16.23-4.97,2.26-1.22,4.1-1.76,6.56-2.63l13.73-4.82c9.03-3.17,28.99-9.53,27.62-21.46-.23-1.99-2.8-4.28-4.64-6.17-9.76-10.09-8.68-5.22-12.69-13.05l-2.76,1.37c-5.49-6.07-11.21-11.09-17.81-16.19l-6.58-5.08c-5.58-.82-9.93-3.64-13.16-8.13-2.98-1.63-7.03-3.38-9.23-5.51-4.64-4.49-22.65-18.3-27.82-20.94-4.5-2.3-9.07-3.99-11.18-7.93-1.05-1.95-3.5-4.83-5.56-5.96l-7.61-4.17-6.95-7c-2.3-2.32-3.59-3.71-6.78-4.73l-5.54-3.06c-20.21-2.12-7.73.13-19.86,4.82-5.57,2.16-9.79,5.45-13.2,10.19-4.29,5.96-5.47,1.4-10.2,5.65l-6.9,6.2c-1.69,1.52-3.52,3.95-5.24,5.76-5.22,5.48-15.17,6.35-20.6,11.38,1,.8,1.96,1.53,1.95,1.55-.02.02-.67.85-.88,1.06s-1.08-.3-1.6-.49c-8.82,2.34-21.23,14.98-28.65,20.28-2.8,2-5.1,3.99-6.33,6.82-7.12,2.1-12.96,7.76-18.69,12.09l-9.84,7.43-11.12,8.01c-7.03,5.06-3.68,9.4-7.27,9.98-2.73.44-2.11-4.04-11.79,7.58-4.81,1.79-8.54,4.53-12.23,8.15s-7.43,5.69-11.64,8.68c-.37.26-16.58,14.81-17.55,15.95-2.98,3.54-6.09,6.52-9.34,9.77-4.74,4.75-8.27,9.42-14.69,12.61-2.28,1.13-4.98,4.76-7.22,6.36s-3.85,2.91-2.73,5.17c2.33,4.71,77.51-7.08,78.18-7.28l9.71-2.96c5.8-1.77,12.1-1.63,18.03-1.92l22.7-1.08h-.01ZM672.89,402.66c-7.99-13.19-8.14-18.81-15.21-30.63l-3.99,1.52c-1.37,6.87-2.31,14.82-.56,21.62,5.4,5.98,11.82,12.09,19.76,7.49h0Z"/>
  <path d="M1740.28,7.82l-.9,2.62c-.16.47-1.34-.38-1.5-.65l.57-6.12c.1-1.07,1-2.82,1.89-3.53.76-.6,3.51.94,3.01,1.81-.85,1.47-2.59,4.48-3.07,5.88h0Z"/>
</svg>